<svg width="551" height="394" viewBox="0 0 551 394" fill="none" xmlns="http://www.w3.org/2000/svg">
<g clip-path="url(#clip0_32_2)">
<path d="M276.245 180.977C266.546 180.977 258.684 173.012 258.684 163.187C258.684 153.362 266.546 145.397 276.245 145.397C285.943 145.397 293.806 153.362 293.806 163.187C293.806 173.012 285.943 180.977 276.245 180.977Z" fill="#3FA14C"/>
<path d="M468.063 23.3937V192.821C468.059 196.937 466.442 200.883 463.569 203.793C460.696 206.704 456.801 208.341 452.738 208.346H15.3255C11.2625 208.341 7.36734 206.704 4.49435 203.793C1.6214 200.883 0.00515747 196.937 0.000274658 192.821V23.3937C0.00515747 19.2777 1.6214 15.3317 4.49435 12.4213C7.36734 9.51088 11.2625 7.87361 15.3255 7.86865H452.738C456.801 7.87361 460.696 9.51087 463.569 12.4213C466.442 15.3317 468.059 19.2777 468.063 23.3937ZM466.713 23.3937C466.713 19.6391 465.24 16.0383 462.62 13.3835C459.999 10.7286 456.445 9.2371 452.738 9.2371H106.497C78.6104 9.2371 51.8662 20.4594 32.1476 40.4351C12.4289 60.4109 1.3511 87.5038 1.3511 115.754V192.821C1.3511 196.575 2.82339 200.176 5.44409 202.831C8.06479 205.486 11.6193 206.977 15.3255 206.977H452.738C456.445 206.977 459.999 205.486 462.62 202.831C465.24 200.176 466.713 196.575 466.713 192.821V23.3937Z" fill="#3F3D56"/>
<path d="M463.02 380.345L453.221 380.344L448.56 342.058L463.022 342.059L463.02 380.345Z" fill="#FFB6B6"/>
<path d="M463.365 390.7L433.234 390.699V390.313C433.234 387.162 434.47 384.14 436.669 381.912C438.869 379.684 441.851 378.433 444.962 378.433H444.963L450.466 374.203L460.735 378.433L463.365 378.433L463.365 390.7Z" fill="#2F2E41"/>
<path d="M505.761 380.345L495.963 380.344L491.302 342.058L505.763 342.059L505.761 380.345Z" fill="#FFB6B6"/>
<path d="M506.106 390.7L475.975 390.699V390.313C475.975 387.162 477.211 384.14 479.41 381.912C481.61 379.684 484.593 378.433 487.703 378.433H487.704L493.207 374.203L503.476 378.433L506.106 378.433L506.106 390.7Z" fill="#2F2E41"/>
<path d="M438.623 171.735C438.623 171.735 429.196 201.067 430.936 204.927C432.676 208.788 435.645 205.78 432.676 208.788C429.707 211.795 427.116 208.598 429.896 213.705C432.676 218.813 436.888 260.858 438.741 262.893C440.593 264.928 443.14 264.983 440.877 266.961C438.614 268.938 435.645 264.928 438.614 268.938C441.583 272.948 449.461 365.456 449.461 365.456H464.85C464.85 365.456 468.683 360.98 466.514 358.067C464.344 355.155 466.704 354.032 466.514 352.087C466.323 350.142 467.045 345.949 467.179 344.035C467.313 342.122 469.914 296.539 463.665 270.207L475.059 220.069L488.861 280.668C488.861 280.668 482.512 331.497 488.861 347.837C488.861 347.837 483.742 352.155 486.013 354.657C488.283 357.16 490.262 355.155 488.283 357.16C486.303 359.165 491.251 366.182 491.251 366.182L508.075 365.18L517.597 270.207C517.597 270.207 519.202 260.303 517.597 258.605C515.992 256.908 515.992 262.923 515.992 256.908V248.888C515.992 248.888 515.062 199.56 514.938 196.655C514.814 193.75 502.939 172.697 502.939 172.697L438.623 171.735Z" fill="#2F2E41"/>
<path d="M438.763 70.4271V128.264C440.606 133.865 441.557 139.727 441.58 145.63C441.519 155.462 439.385 166.793 439.392 171.747C439.363 172.404 439.434 173.061 439.601 173.697C449.05 201.442 499.051 176.228 503.597 173.868C503.813 173.758 503.928 173.697 503.928 173.697L502.941 142.619L503.11 133.683L504.279 72.384L503.232 71.5356L494.06 64.1254L493.161 63.4001L490.406 67.4713L465.841 65.7607L456.466 63.1333L453.542 64.3375L440.357 69.7702L438.763 70.4271Z" fill="#3FA14C"/>
<path d="M353.152 115.877L370.366 110.111L374.99 119.614L356.575 125.054C355.973 126.022 355.117 126.8 354.102 127.302C353.087 127.803 351.955 128.008 350.831 127.894C349.708 127.779 348.638 127.349 347.743 126.652C346.847 125.956 346.161 125.02 345.762 123.95C345.363 122.88 345.267 121.718 345.483 120.596C345.7 119.473 346.222 118.434 346.989 117.595C347.757 116.757 348.74 116.151 349.829 115.848C350.918 115.544 352.068 115.554 353.152 115.877Z" fill="#FFB6B6"/>
<path d="M455.439 64.8008L455.51 65.0894C456.855 70.541 458.573 86.1125 454.893 90.317C450.167 95.723 411.992 112.227 404.409 110.882C398.527 109.839 399.738 110.189 396.924 113.155C394.109 116.121 398.78 116.814 392.503 117.333C386.226 117.852 386.1 115.417 384.756 118.117C383.411 120.818 384.608 122.445 380.335 122.295C376.063 122.145 374.992 122.952 373.522 123.218C372.053 123.483 362.825 127.914 362.825 127.914C362.825 127.914 359.123 117.216 354.463 113.141C354.463 113.141 365.15 111.826 365.959 109.53C366.768 107.233 366.107 105.202 368.909 105.617C371.712 106.033 373.17 109.149 372.783 105.225C372.396 101.301 392.584 93.6619 392.584 93.6619C404.768 81.5099 429.799 73.0676 455.439 64.8008Z" fill="#3FA14C"/>
<path d="M510.056 185.596L510.837 167.246L521.247 166.235L519.74 185.606C520.42 186.519 520.835 187.607 520.938 188.746C521.042 189.885 520.829 191.03 520.325 192.054C519.821 193.077 519.045 193.938 518.085 194.539C517.124 195.141 516.017 195.458 514.888 195.457C513.759 195.456 512.652 195.136 511.693 194.533C510.734 193.929 509.96 193.067 509.458 192.042C508.956 191.018 508.746 189.872 508.851 188.733C508.957 187.594 509.374 186.508 510.056 185.596Z" fill="#FFB6B6"/>
<path d="M499.174 70.5981L499.466 70.6329C502.179 70.9572 504.774 71.9467 507.025 73.5155C509.276 75.0844 511.115 77.1855 512.384 79.6368C515.699 86.0299 526.185 129.33 523.617 135.272C521.223 140.814 521.322 139.451 523.062 143.168C524.802 146.886 527.097 142.707 525.351 148.837C523.604 154.967 521.312 154.222 523.328 156.453C525.344 158.684 527.27 158.128 525.617 162.122C523.964 166.115 524.33 167.416 524.054 168.902C523.778 170.389 524.597 180.701 524.597 180.701C524.597 180.701 513.409 180.415 507.996 183.384C507.996 183.384 510.571 172.795 508.738 171.215C506.905 169.634 504.796 169.54 506.173 167.032C507.55 164.525 510.943 164.249 507.184 163.224C503.425 162.2 503.531 140.369 503.531 140.369L499.174 70.5981Z" fill="#3FA14C"/>
<path d="M472.352 47.2116C472.791 47.3142 473.23 47.4032 473.669 47.4716C475.01 47.6948 476.372 47.7659 477.728 47.6837C481.262 47.4915 484.675 46.3115 487.587 44.2744C490.499 42.2374 492.797 39.4231 494.227 36.1435C495.657 32.8639 496.162 29.2473 495.686 25.6947C495.21 22.1421 493.773 18.7924 491.533 16.017C489.292 13.2417 486.337 11.1491 482.994 9.97149C479.652 8.79385 476.052 8.57713 472.596 9.34537C469.139 10.1136 465.96 11.8368 463.411 14.3238C460.862 16.8108 459.042 19.9644 458.155 23.4349C458.114 23.5923 458.074 23.7428 458.04 23.9002C456.888 28.914 457.748 34.1863 460.432 38.5577C463.116 42.9292 467.403 46.0419 472.352 47.2116Z" fill="#FFB6B6"/>
<path d="M490.036 44.9208C492.701 42.8081 492.959 38.7809 495.234 36.2423C499.036 31.998 500.822 27.4316 498.83 22.4024C497.069 17.9542 497.443 12.4863 493.649 9.62301C495.513 8.93965 495.951 7.52052 494.307 7.49432C493.198 7.47665 489.065 9.6234 491.054 6.94912C493.042 4.27484 489.278 5.33044 489.527 4.23576C489.776 3.14109 491.372 2.53479 492.077 3.40252C489.828 0.733631 484.918 1.30263 483.323 4.41695C481.082 1.0145 478.703 -1.3267 475.274 0.832485C471.905 2.95313 471.95 5.57455 468.328 4.94455C466.625 4.6484 466.464 7.90723 465.301 9.20123C464.138 10.4952 462.437 11.4967 460.74 11.1717C459.042 10.8467 457.744 8.70361 458.695 7.24264L454.694 16.4894L453.082 14.4857C450.52 16.1773 451.361 20.5913 453.94 22.2563C456.519 23.9213 461.442 20.0729 462.841 22.8275C465.048 27.1697 470.223 24.9771 473.778 21.9084C478.088 18.187 483.291 29.5022 481.215 34.8395C483.369 32.6964 487.354 34.4749 488.471 37.3171C489.587 40.1592 488.768 43.3614 487.941 46.3031L490.036 44.9208Z" fill="#2F2E41"/>
<path d="M223.816 108.81H244.09C244.616 108.809 245.12 108.597 245.492 108.22C245.864 107.844 246.074 107.333 246.074 106.8V86.5116C246.074 85.9786 245.864 85.4677 245.492 85.0909C245.12 84.714 244.616 84.5021 244.09 84.5015H223.816C223.289 84.5021 222.785 84.714 222.413 85.0909C222.041 85.4677 221.832 85.9786 221.831 86.5116V106.8C221.832 107.333 222.041 107.844 222.413 108.22C222.785 108.597 223.289 108.809 223.816 108.81Z" fill="#F2F2F2"/>
<path d="M220.441 110.519H240.715C241.241 110.519 241.745 110.307 242.117 109.93C242.489 109.553 242.699 109.042 242.699 108.509V88.221C242.699 87.6881 242.489 87.1772 242.117 86.8003C241.745 86.4235 241.241 86.2115 240.715 86.2109H220.441C219.914 86.2115 219.41 86.4235 219.038 86.8003C218.666 87.1772 218.457 87.6881 218.456 88.221V108.509C218.457 109.042 218.666 109.553 219.038 109.93C219.41 110.307 219.914 110.519 220.441 110.519Z" fill="#F2F2F2"/>
<path d="M243.665 85.1006C244.147 85.1006 244.61 85.2946 244.951 85.64C245.292 85.9854 245.483 86.4538 245.483 86.9422V106.37C245.483 106.858 245.292 107.326 244.951 107.672C244.61 108.017 244.147 108.211 243.665 108.211H231.268C228.922 108.211 226.672 107.267 225.013 105.587C223.355 103.906 222.423 101.627 222.423 99.2507V86.9422C222.423 86.4538 222.614 85.9854 222.955 85.64C223.296 85.2946 223.759 85.1006 224.241 85.1006H243.665Z" fill="white"/>
<path d="M228.523 90.9962H239.425C239.525 90.9962 239.621 90.956 239.692 90.8843C239.763 90.8126 239.802 90.7154 239.802 90.6141C239.802 90.5127 239.763 90.4155 239.692 90.3439C239.621 90.2722 239.525 90.2319 239.425 90.2319H228.523C228.423 90.2319 228.327 90.2722 228.256 90.3439C228.185 90.4155 228.145 90.5127 228.145 90.6141C228.145 90.7154 228.185 90.8126 228.256 90.8843C228.327 90.956 228.423 90.9962 228.523 90.9962Z" fill="#F2F2F2"/>
<path d="M228.523 99.1451H239.425C239.525 99.1451 239.621 99.1049 239.692 99.0332C239.763 98.9616 239.802 98.8643 239.802 98.763C239.802 98.6616 239.763 98.5644 239.692 98.4928C239.621 98.4211 239.525 98.3809 239.425 98.3809H228.523C228.423 98.3809 228.327 98.4211 228.256 98.4928C228.185 98.5644 228.145 98.6616 228.145 98.763C228.145 98.8643 228.185 98.9616 228.256 99.0332C228.327 99.1049 228.423 99.1451 228.523 99.1451Z" fill="#F2F2F2"/>
<path d="M224.095 95.0734H243.853C243.953 95.0734 244.049 95.0331 244.119 94.9614C244.19 94.8898 244.23 94.7926 244.23 94.6912C244.23 94.5899 244.19 94.4927 244.119 94.421C244.049 94.3493 243.953 94.3091 243.853 94.3091H224.095C223.995 94.3091 223.899 94.3493 223.829 94.421C223.758 94.4927 223.718 94.5899 223.718 94.6912C223.718 94.7926 223.758 94.8898 223.829 94.9614C223.899 95.0331 223.995 95.0734 224.095 95.0734Z" fill="#F2F2F2"/>
<path d="M223.894 102.459H231.031C231.131 102.459 231.227 102.418 231.298 102.347C231.368 102.275 231.408 102.178 231.408 102.076C231.408 101.975 231.368 101.878 231.298 101.806C231.227 101.735 231.131 101.694 231.031 101.694H223.894C223.794 101.694 223.698 101.735 223.627 101.806C223.556 101.878 223.516 101.975 223.516 102.076C223.516 102.178 223.556 102.275 223.627 102.347C223.698 102.418 223.794 102.459 223.894 102.459Z" fill="#F2F2F2"/>
<path d="M284.961 121.51L285.224 121.379C300.609 113.673 317.252 113.68 336.104 121.4L336.61 120.131C317.488 112.302 300.566 112.265 284.89 120.02C262.829 111.515 248.646 97.1007 242.733 77.1714L241.439 77.5656C247.504 98.0061 262.055 112.756 284.686 121.405L284.961 121.51Z" fill="#F2F2F2"/>
<path d="M220.782 121.511L221.046 121.385C236.167 114.199 252.82 114.205 271.957 121.407L272.428 120.124C253.047 112.83 236.135 112.795 220.738 120.02C196.038 110.022 181.857 95.633 178.586 77.2476L177.257 77.4901C180.628 96.4389 195.181 111.213 220.51 121.401L220.782 121.511Z" fill="#F2F2F2"/>
<path d="M170.203 120.782L170.37 120.709C182.829 115.284 199.038 115.295 221.378 120.746L221.695 119.416C199.156 113.917 182.723 113.903 170.005 119.38C144.758 116.252 130.995 102.258 127.936 76.6021L126.595 76.7664C129.748 103.201 143.953 117.591 170.023 120.76L170.203 120.782Z" fill="#F2F2F2"/>
<path d="M236.396 80.3958C233.411 80.3958 230.992 77.9451 230.992 74.922C230.992 71.8989 233.411 69.4482 236.396 69.4482C239.38 69.4482 241.799 71.8989 241.799 74.922C241.799 77.9451 239.38 80.3958 236.396 80.3958Z" fill="#3FA14C"/>
<path d="M175.608 80.3958C172.624 80.3958 170.205 77.9451 170.205 74.922C170.205 71.8989 172.624 69.4482 175.608 69.4482C178.592 69.4482 181.011 71.8989 181.011 74.922C181.011 77.9451 178.592 80.3958 175.608 80.3958Z" fill="#3FA14C"/>
<path d="M126.978 79.7117C123.994 79.7117 121.575 77.261 121.575 74.2379C121.575 71.2149 123.994 68.7642 126.978 68.7642C129.962 68.7642 132.381 71.2149 132.381 74.2379C132.381 77.261 129.962 79.7117 126.978 79.7117Z" fill="#3FA14C"/>
<path d="M277.601 163.204H334.398C335.872 163.203 337.285 162.609 338.327 161.553C339.369 160.497 339.955 159.066 339.957 157.573V100.738C339.955 99.2446 339.369 97.8133 338.327 96.7576C337.285 95.7019 335.872 95.1081 334.398 95.1064H277.601C276.128 95.1081 274.715 95.7019 273.673 96.7576C272.631 97.8133 272.044 99.2446 272.043 100.738V157.573C272.044 159.066 272.631 160.497 273.673 161.553C274.715 162.609 276.128 163.203 277.601 163.204Z" fill="#E6E6E6"/>
<path d="M287.057 158.415H343.854C345.328 158.414 346.741 157.82 347.783 156.764C348.825 155.708 349.411 154.277 349.413 152.784V95.9485C349.411 94.4556 348.825 93.0242 347.783 91.9686C346.741 90.9129 345.328 90.3191 343.854 90.3174H287.057C285.584 90.3191 284.171 90.9129 283.129 91.9686C282.087 93.0242 281.5 94.4556 281.499 95.9485V152.784C281.5 154.277 282.087 155.708 283.129 156.764C284.171 157.82 285.584 158.414 287.057 158.415Z" fill="#E6E6E6"/>
<path d="M333.277 91.9951C337.117 91.9951 340.8 93.5406 343.516 96.2915C346.231 99.0424 347.757 102.773 347.757 106.664V151.578C347.757 152.256 347.625 152.927 347.369 153.552C347.113 154.178 346.738 154.747 346.265 155.226C345.792 155.705 345.231 156.085 344.613 156.345C343.995 156.604 343.333 156.737 342.664 156.737H307.934C304.68 156.737 301.458 156.088 298.452 154.827C295.445 153.565 292.714 151.716 290.413 149.385C288.112 147.054 286.287 144.287 285.041 141.241C283.796 138.196 283.155 134.932 283.155 131.635V97.1543C283.155 95.786 283.692 94.4738 284.647 93.5062C285.602 92.5387 286.897 91.9951 288.248 91.9951H333.277Z" fill="white"/>
<path d="M300.244 108.512H330.787C331.067 108.512 331.336 108.399 331.534 108.198C331.732 107.997 331.844 107.725 331.844 107.441C331.844 107.157 331.732 106.885 331.534 106.684C331.336 106.483 331.067 106.371 330.787 106.371H300.244C299.964 106.371 299.695 106.483 299.497 106.684C299.299 106.885 299.187 107.157 299.187 107.441C299.187 107.725 299.299 107.997 299.497 108.198C299.695 108.399 299.964 108.512 300.244 108.512Z" fill="#E6E6E6"/>
<path d="M300.244 131.34H330.787C330.926 131.341 331.063 131.313 331.192 131.26C331.321 131.206 331.437 131.127 331.536 131.028C331.634 130.928 331.712 130.81 331.765 130.68C331.819 130.55 331.846 130.411 331.846 130.27C331.846 130.129 331.819 129.989 331.765 129.859C331.712 129.729 331.634 129.611 331.536 129.512C331.437 129.412 331.321 129.334 331.192 129.28C331.063 129.226 330.926 129.199 330.787 129.199H300.244C299.964 129.2 299.696 129.313 299.499 129.514C299.301 129.714 299.19 129.986 299.19 130.27C299.19 130.553 299.301 130.825 299.499 131.026C299.696 131.226 299.964 131.339 300.244 131.34Z" fill="#E6E6E6"/>
<path d="M287.841 119.933H343.189C343.47 119.933 343.738 119.821 343.937 119.62C344.135 119.419 344.246 119.147 344.246 118.863C344.246 118.579 344.135 118.307 343.937 118.106C343.738 117.905 343.47 117.792 343.189 117.792H287.841C287.561 117.792 287.292 117.905 287.094 118.106C286.896 118.307 286.784 118.579 286.784 118.863C286.784 119.147 286.896 119.419 287.094 119.62C287.292 119.821 287.561 119.933 287.841 119.933Z" fill="#E6E6E6"/>
<path d="M287.276 140.622H307.271C307.41 140.622 307.547 140.594 307.675 140.54C307.804 140.487 307.92 140.408 308.018 140.308C308.116 140.209 308.194 140.091 308.247 139.961C308.3 139.831 308.328 139.692 308.328 139.551C308.328 139.411 308.3 139.272 308.247 139.142C308.194 139.012 308.116 138.894 308.018 138.795C307.92 138.695 307.804 138.616 307.675 138.562C307.547 138.509 307.41 138.481 307.271 138.481H287.276C286.996 138.481 286.727 138.594 286.529 138.795C286.331 138.995 286.219 139.268 286.219 139.551C286.219 139.835 286.331 140.108 286.529 140.308C286.727 140.509 286.996 140.622 287.276 140.622Z" fill="#E6E6E6"/>
<path d="M152.222 106.073H172.496C173.022 106.073 173.526 105.861 173.898 105.484C174.27 105.107 174.48 104.596 174.48 104.063V83.7748C174.48 83.2418 174.27 82.7309 173.898 82.3541C173.526 81.9772 173.022 81.7652 172.496 81.7646H152.222C151.695 81.7652 151.191 81.9772 150.819 82.3541C150.447 82.7309 150.238 83.2418 150.237 83.7748V104.063C150.238 104.596 150.447 105.107 150.819 105.484C151.191 105.861 151.695 106.073 152.222 106.073Z" fill="#F2F2F2"/>
<path d="M148.846 107.783H169.121C169.647 107.782 170.151 107.57 170.523 107.193C170.895 106.816 171.104 106.305 171.105 105.772V85.4842C171.104 84.9513 170.895 84.4404 170.523 84.0635C170.151 83.6867 169.647 83.4747 169.121 83.4741H148.846C148.32 83.4747 147.816 83.6867 147.444 84.0635C147.072 84.4404 146.863 84.9513 146.862 85.4842V105.772C146.863 106.305 147.072 106.816 147.444 107.193C147.816 107.57 148.32 107.782 148.846 107.783Z" fill="#F2F2F2"/>
<path d="M172.071 82.3638C172.553 82.3638 173.016 82.5578 173.357 82.9032C173.698 83.2485 173.889 83.717 173.889 84.2054V103.633C173.889 104.121 173.698 104.59 173.357 104.935C173.016 105.28 172.553 105.474 172.071 105.474H159.674C157.328 105.474 155.078 104.53 153.419 102.85C151.761 101.169 150.829 98.8903 150.829 96.5138V84.2054C150.829 83.717 151.02 83.2485 151.361 82.9032C151.702 82.5578 152.165 82.3638 152.647 82.3638H172.071Z" fill="white"/>
<path d="M156.929 88.2589H167.831C167.932 88.2589 168.028 88.2187 168.098 88.147C168.169 88.0753 168.209 87.9781 168.209 87.8768C168.209 87.7754 168.169 87.6782 168.098 87.6066C168.028 87.5349 167.932 87.4946 167.831 87.4946H156.929C156.829 87.4946 156.733 87.5349 156.662 87.6066C156.591 87.6782 156.552 87.7754 156.552 87.8768C156.552 87.9781 156.591 88.0753 156.662 88.147C156.733 88.2187 156.829 88.2589 156.929 88.2589Z" fill="#F2F2F2"/>
<path d="M156.929 96.4083H167.831C167.932 96.4083 168.028 96.3681 168.098 96.2964C168.169 96.2247 168.209 96.1275 168.209 96.0262C168.209 95.9248 168.169 95.8276 168.098 95.756C168.028 95.6843 167.932 95.644 167.831 95.644H156.929C156.829 95.644 156.733 95.6843 156.662 95.756C156.591 95.8276 156.552 95.9248 156.552 96.0262C156.552 96.1275 156.591 96.2247 156.662 96.2964C156.733 96.3681 156.829 96.4083 156.929 96.4083Z" fill="#F2F2F2"/>
<path d="M152.501 92.3365H172.259C172.359 92.3365 172.455 92.2963 172.525 92.2246C172.596 92.153 172.636 92.0558 172.636 91.9544C172.636 91.8531 172.596 91.7559 172.525 91.6842C172.455 91.6125 172.359 91.5723 172.259 91.5723H152.501C152.401 91.5723 152.305 91.6125 152.234 91.6842C152.164 91.7559 152.124 91.8531 152.124 91.9544C152.124 92.0558 152.164 92.153 152.234 92.2246C152.305 92.2963 152.401 92.3365 152.501 92.3365Z" fill="#F2F2F2"/>
<path d="M152.3 99.7218H159.437C159.537 99.7218 159.633 99.6815 159.704 99.6099C159.775 99.5382 159.814 99.441 159.814 99.3397C159.814 99.2383 159.775 99.1411 159.704 99.0695C159.633 98.9978 159.537 98.9575 159.437 98.9575H152.3C152.2 98.9575 152.104 98.9978 152.033 99.0695C151.962 99.1411 151.923 99.2383 151.923 99.3397C151.923 99.441 151.962 99.5382 152.033 99.6099C152.104 99.6815 152.2 99.7218 152.3 99.7218Z" fill="#F2F2F2"/>
<path d="M384.638 381.232C384.952 381.247 385.263 381.163 385.529 380.993C385.794 380.822 386.002 380.574 386.123 380.28C386.244 379.986 386.273 379.662 386.206 379.351C386.139 379.04 385.98 378.757 385.749 378.541L385.644 378.118C385.658 378.084 385.672 378.05 385.686 378.016C386.002 377.259 386.532 376.614 387.209 376.161C387.886 375.709 388.68 375.469 389.491 375.472C390.303 375.475 391.095 375.721 391.769 376.179C392.442 376.636 392.968 377.286 393.278 378.045C394.52 381.075 396.101 384.11 396.491 387.313C396.662 388.729 396.59 390.165 396.277 391.556C399.193 385.11 400.708 378.105 400.718 371.015C400.718 369.236 400.621 367.458 400.425 365.689C400.264 364.24 400.04 362.801 399.754 361.372C398.19 353.619 394.834 346.352 389.96 340.168C387.601 338.864 385.693 336.859 384.494 334.423C384.059 333.547 383.752 332.612 383.582 331.648C383.848 331.683 384.586 327.577 384.385 327.326C384.756 326.755 385.419 326.472 385.824 325.916C387.839 323.149 390.614 323.632 392.063 327.392C395.158 328.974 395.188 331.598 393.289 334.122C392.08 335.728 391.914 337.901 390.854 339.62C390.963 339.761 391.077 339.898 391.186 340.04C393.18 342.637 394.917 345.426 396.374 348.366C396.02 345.072 396.442 341.74 397.607 338.643C398.788 335.758 401.001 333.328 402.95 330.833C403.466 330.163 404.166 329.663 404.962 329.395C405.758 329.128 406.614 329.106 407.423 329.332C408.231 329.558 408.955 330.021 409.504 330.664C410.052 331.307 410.4 332.1 410.504 332.943C410.508 332.979 410.512 333.016 410.516 333.053C410.226 333.218 409.943 333.394 409.666 333.58C409.317 333.816 409.047 334.152 408.891 334.546C408.735 334.94 408.7 335.372 408.791 335.787C408.881 336.201 409.093 336.578 409.399 336.868C409.705 337.158 410.09 337.348 410.504 337.413L410.546 337.419C410.443 338.476 410.261 339.524 410.001 340.553C412.501 350.348 407.103 353.915 399.396 354.076C399.226 354.164 399.06 354.252 398.89 354.336C400.353 358.538 401.271 362.914 401.621 367.356C401.819 369.976 401.807 372.608 401.586 375.226L401.599 375.134C402.157 372.222 403.691 369.595 405.94 367.696C409.28 364.916 413.999 363.892 417.603 361.658C417.986 361.409 418.431 361.276 418.886 361.275C419.341 361.274 419.787 361.405 420.171 361.652C420.556 361.899 420.862 362.252 421.054 362.67C421.247 363.088 421.317 363.553 421.258 364.01L421.243 364.107C420.706 364.329 420.183 364.584 419.677 364.872C419.387 365.037 419.104 365.213 418.827 365.399C418.478 365.634 418.209 365.971 418.052 366.365C417.896 366.759 417.861 367.191 417.952 367.606C418.042 368.02 418.255 368.397 418.56 368.687C418.866 368.977 419.251 369.167 419.665 369.232L419.707 369.238C419.738 369.243 419.764 369.247 419.795 369.251C418.877 371.472 417.588 373.515 415.986 375.293C414.423 383.843 407.708 384.655 400.526 382.165H400.521C399.733 385.634 398.592 389.011 397.114 392.241H384.943C384.9 392.104 384.86 391.962 384.821 391.825C385.948 391.897 387.079 391.829 388.189 391.622C387.286 390.499 386.383 389.368 385.48 388.246C385.46 388.225 385.441 388.203 385.423 388.179C384.965 387.605 384.503 387.035 384.045 386.46L384.044 386.46C384.02 384.699 384.22 382.941 384.638 381.232Z" fill="#F2F2F2"/>
<path d="M551 392.277C551 392.384 550.98 392.49 550.939 392.589C550.899 392.688 550.84 392.778 550.765 392.854C550.691 392.929 550.602 392.989 550.504 393.03C550.407 393.071 550.302 393.092 550.196 393.091H379.12C378.907 393.091 378.703 393.006 378.552 392.853C378.401 392.7 378.316 392.493 378.316 392.277C378.316 392.061 378.401 391.854 378.552 391.701C378.703 391.549 378.907 391.463 379.12 391.463H550.196C550.302 391.463 550.407 391.483 550.504 391.524C550.602 391.565 550.691 391.625 550.765 391.701C550.84 391.776 550.899 391.866 550.939 391.965C550.98 392.064 551 392.17 551 392.277Z" fill="#CCCCCC"/>
<path d="M477.729 47.6833L473.67 47.4712C475.011 47.6943 476.372 47.7655 477.729 47.6833Z" fill="#F2F2F2"/>
<path d="M453.541 64.3371L454.21 65.1992L456.007 67.5119L471.521 87.498L494.06 64.125L493.161 63.3997L488.379 53.1022L463.814 51.3916L456.466 63.1329L453.541 64.3371Z" fill="#3F3D56"/>
</g>
<defs>
<clipPath id="clip0_32_2">
<rect width="551" height="393.091" fill="white" transform="matrix(-1 0 0 1 551 0)"/>
</clipPath>
</defs>
</svg>
