<svg width="524" height="378" viewBox="0 0 524 378" fill="none" xmlns="http://www.w3.org/2000/svg">
<g clip-path="url(#clip0_35_74)">
<path d="M228.689 333.086L229.484 315.224C237.765 310.798 247.001 308.46 256.391 308.413C243.468 318.979 245.083 339.346 236.321 353.554C233.555 357.964 229.831 361.696 225.426 364.472C221.021 367.247 216.049 368.996 210.876 369.589L200.061 376.21C198.577 367.938 198.905 359.442 201.02 351.307C203.136 343.173 206.99 335.595 212.317 329.093C215.341 325.476 218.809 322.253 222.639 319.502C225.229 326.332 228.689 333.086 228.689 333.086Z" fill="#F2F2F2"/>
<path d="M297.436 84.5786C297.721 88.6392 298.917 92.5835 300.936 96.118C305.191 103.591 312.489 109.002 320.348 112.218C330.167 116.236 341.113 116.36 351.534 115.464C361.212 114.632 370.793 112.703 380.507 112.305C388.02 112.065 395.54 112.244 403.033 112.843C417.569 113.875 432.045 115.789 446.428 118.11C450.324 118.73 454.211 119.398 458.089 120.111C458.456 120.143 458.819 120.21 459.173 120.312C459.243 120.341 459.356 120.318 459.421 120.359C459.538 120.433 458.947 120.172 459.305 120.468C459.804 120.991 460.249 121.564 460.633 122.177L465.945 129.013C467.468 130.973 468.882 133.355 470.851 134.9C472.239 135.973 473.914 136.61 475.664 136.732C477.414 136.854 479.161 136.455 480.684 135.585C482.276 134.58 483.545 133.138 484.341 131.432C485.563 129.191 487.02 127.087 488.689 125.155C495.009 117.783 503.792 113.248 511.138 107.045C514.696 104.163 517.733 100.692 520.116 96.7821C522.149 93.244 523.413 89.3169 523.826 85.2573C524.706 77.0129 522.176 68.6054 517.921 61.5918C513.293 54.0568 506.644 47.971 498.73 44.0259C489.839 39.4964 480.001 37.2901 470.139 36.1906C459.669 35.0233 449.077 35.0269 438.555 35.1448C426.748 35.2762 414.961 35.7954 403.196 36.7025C391.415 37.6144 379.68 38.9106 367.992 40.591C356.777 42.2035 345.424 43.8842 334.446 46.7373C324.748 49.2578 315.077 53.1975 307.835 60.3358C301.395 66.6827 296.917 75.3682 297.436 84.5786Z" fill="#E6E6E6"/>
<path d="M348.677 51.4413C338.207 53.3729 327.25 55.7379 318.465 61.4662C309.777 67.1317 304.495 76.0387 305.008 84.1581C305.759 96.0178 318.368 104.887 329.852 107.21C340.851 109.435 352.309 107.928 364.44 106.332C367.124 105.979 369.9 105.614 372.646 105.296C402.507 101.845 458.574 112.476 460.947 112.931L463.412 113.403L476.463 130.198C479.435 123.584 484.6 117.701 490.085 113.318C492.596 111.312 495.216 109.448 497.749 107.646C504.213 103.05 510.318 98.7085 513.688 92.7438C521.026 79.7539 512.355 61.641 499.983 53.5095C486.044 44.3484 467.676 42.9114 449.903 42.7228C448.052 42.7032 446.2 42.6934 444.347 42.6934C412.258 42.6982 380.235 45.6263 348.677 51.4413Z" fill="white"/>
<path d="M340.324 65.7969C340.323 65.4368 340.394 65.0801 340.531 64.7472C340.669 64.4144 340.871 64.1119 341.125 63.857C341.379 63.6021 341.681 63.3998 342.014 63.2616C342.347 63.1234 342.703 63.0521 343.063 63.0518H469.1C469.827 63.0518 470.524 63.3407 471.039 63.855C471.553 64.3692 471.842 65.0667 471.842 65.794C471.842 66.5213 471.553 67.2188 471.039 67.7331C470.524 68.2474 469.827 68.5363 469.1 68.5363H343.063C342.337 68.5356 341.64 68.2467 341.127 67.7331C340.613 67.2195 340.324 66.5232 340.324 65.7969Z" fill="#E6E6E6"/>
<path d="M340.324 82.6294C340.323 82.2693 340.394 81.9126 340.531 81.5798C340.669 81.2469 340.871 80.9444 341.125 80.6895C341.379 80.4346 341.681 80.2323 342.014 80.0941C342.347 79.956 342.703 79.8847 343.063 79.8843H469.105C469.465 79.8847 469.822 79.956 470.155 80.0941C470.487 80.2323 470.789 80.4346 471.044 80.6895C471.298 80.9444 471.5 81.2469 471.637 81.5798C471.775 81.9126 471.845 82.2693 471.845 82.6294C471.844 82.9895 471.773 83.3461 471.635 83.6786C471.497 84.0112 471.294 84.3133 471.04 84.5677C470.785 84.822 470.482 85.0237 470.149 85.1612C469.816 85.2987 469.46 85.3692 469.1 85.3688H343.063C342.337 85.3681 341.64 85.0792 341.127 84.5657C340.613 84.0521 340.324 83.3557 340.324 82.6294Z" fill="#E6E6E6"/>
<path d="M451.673 99.4614C451.672 99.1013 451.743 98.7447 451.88 98.4118C452.018 98.079 452.219 97.7764 452.474 97.5215C452.728 97.2666 453.03 97.0643 453.363 96.9261C453.695 96.788 454.052 96.7167 454.412 96.7163H469.1C469.827 96.7163 470.525 97.0052 471.039 97.5195C471.553 98.0338 471.842 98.7313 471.842 99.4586C471.842 100.186 471.553 100.883 471.039 101.398C470.525 101.912 469.827 102.201 469.1 102.201H454.412C453.686 102.2 452.989 101.911 452.476 101.398C451.962 100.884 451.673 100.188 451.673 99.4614Z" fill="#E6E6E6"/>
<path d="M176.007 52.4255C174.697 49.3971 172.707 46.7105 170.193 44.573C167.679 42.4356 164.708 40.9045 161.508 40.098C154.404 38.2501 144.001 41.065 138.661 45.1067C128.891 52.4998 126.507 77.8976 133.219 85.9236C134.554 85.87 139.161 85.8303 140.512 85.7918L142.423 80.9544V85.7442C152.97 85.4967 163.95 85.6517 174.936 85.8119C175.92 80.1294 178.266 57.8917 176.007 52.4255Z" fill="#2F2E41"/>
<path d="M174.216 358.683H183.836L188.412 321.579L174.215 321.579L174.216 358.683Z" fill="#9E616A"/>
<path d="M90.0085 352.701L99.3166 355.127L113.104 320.377L99.3653 316.797L90.0085 352.701Z" fill="#9E616A"/>
<path d="M143.019 130.796L140.84 136.463L141.276 142.13L183.934 156.905L181.817 132.104L177.022 126.436L143.019 130.796Z" fill="#FFB6B6"/>
<path d="M161.32 79.7981C169.734 79.7981 176.555 72.9769 176.555 64.5624C176.555 56.1479 169.734 49.3267 161.32 49.3267C152.905 49.3267 146.084 56.1479 146.084 64.5624C146.084 72.9769 152.905 79.7981 161.32 79.7981Z" fill="#9E616A"/>
<path d="M171.788 44.7227C168.861 42.9381 165.508 41.9726 162.079 41.9274C158.651 41.8822 155.274 42.7589 152.3 44.4658C149.327 46.1727 146.866 48.6471 145.177 51.6303C143.487 54.6135 142.629 57.9959 142.694 61.4239C150.999 63.5465 159.849 64.4344 169.228 61.9351L171.372 56.6881L172.636 61.939C175.505 63.9573 178.275 63.9537 180.944 61.9281C181.057 58.5098 180.271 55.1216 178.665 52.1024C177.058 49.0831 174.687 46.5384 171.788 44.7227Z" fill="#2F2E41"/>
<path d="M171.831 353.937L187.037 353.03V359.545L201.494 369.529C202.208 370.023 202.746 370.731 203.029 371.551C203.312 372.372 203.325 373.261 203.067 374.089C202.809 374.918 202.293 375.642 201.594 376.156C200.895 376.671 200.05 376.948 199.182 376.948H181.078L177.958 370.503L176.739 376.948H169.913L171.831 353.937Z" fill="#2F2E41"/>
<path d="M88.0532 347.288L102.997 350.245L101.354 356.549L112.825 369.858C113.391 370.515 113.733 371.336 113.8 372.201C113.867 373.066 113.655 373.93 113.197 374.667C112.738 375.404 112.055 375.974 111.249 376.295C110.443 376.617 109.556 376.672 108.716 376.453L91.1975 371.887L89.8034 364.863L86.9989 370.792L80.3938 369.07L88.0532 347.288Z" fill="#2F2E41"/>
<path d="M91.1887 329.367L119.385 271.415L128.237 200.879C122.134 189.545 133.468 166.482 133.468 166.482V156.799L177.373 165.082C186.353 189.575 190.708 215.523 190.216 241.605L188.447 335.367H189.002C189.923 335.367 190.806 335.733 191.457 336.384C192.108 337.035 192.474 337.918 192.474 338.839C192.474 339.76 192.108 340.643 191.457 341.295C190.806 341.946 189.923 342.312 189.002 342.312H171.64C170.719 342.312 169.836 341.946 169.184 341.295C168.533 340.643 168.167 339.76 168.167 338.839C168.167 337.918 168.533 337.035 169.184 336.384C169.836 335.733 170.719 335.367 171.64 335.367H172.088L159.624 216.085L145.131 274.948L110.109 329.145C111.002 329.214 111.834 329.627 112.429 330.297C113.024 330.967 113.337 331.841 113.301 332.737C113.265 333.632 112.883 334.479 112.236 335.099C111.589 335.718 110.727 336.064 109.831 336.061H92.4692C91.6617 336.062 90.8792 335.781 90.2566 335.267C89.634 334.753 89.2103 334.037 89.0586 333.244C88.9069 332.451 89.0366 331.63 89.4255 330.922C89.8143 330.214 90.4379 329.665 91.1887 329.367Z" fill="#2F2E41"/>
<path d="M129.499 172.419C129.643 171.852 129.963 171.346 130.413 170.972C130.862 170.599 131.419 170.377 132.002 170.339C132.581 163.723 136.405 121.289 136.55 120.044L136.556 119.991L137.663 96.339C137.703 95.48 138.059 94.6659 138.661 94.0523C139.263 93.4386 140.071 93.0683 140.929 93.0122L146.777 92.63C146.857 92.6273 146.933 92.5935 146.989 92.5358C147.045 92.4781 147.076 92.401 147.076 92.3207C147.076 91.6749 147.203 91.0354 147.45 90.4387C147.698 89.8421 148.06 89.2999 148.516 88.8433C148.973 88.3866 149.515 88.0243 150.112 87.7772C150.709 87.5301 151.348 87.4028 151.994 87.4028H169.308C170.43 87.4033 171.512 87.813 172.353 88.5552C173.194 89.2973 173.735 90.3207 173.875 91.4335C173.882 91.5101 173.919 91.581 173.976 91.632C174.034 91.683 174.109 91.7103 174.186 91.7086L174.188 91.7085C176.155 91.668 178.072 92.3341 179.59 93.5859C181.109 94.8377 182.128 96.5923 182.463 98.5313C184.83 112.304 189.574 143.561 187.228 160.939C186.412 166.988 186.783 176.086 187.092 181.148C187.122 181.637 187.056 182.127 186.897 182.591C186.738 183.055 186.489 183.482 186.164 183.849C186.855 184.048 187.441 184.508 187.799 185.13C188.158 185.753 188.26 186.491 188.085 187.188C187.905 187.902 187.449 188.516 186.816 188.894C186.184 189.272 185.427 189.383 184.713 189.203L131.513 175.792C130.799 175.612 130.185 175.155 129.807 174.523C129.43 173.89 129.318 173.133 129.499 172.419Z" fill="#3F3D56"/>
<path d="M290.69 377.774H0.826898C0.60759 377.774 0.397267 377.687 0.242192 377.532C0.0871181 377.377 0 377.167 0 376.948C0 376.728 0.0871181 376.518 0.242192 376.363C0.397267 376.208 0.60759 376.121 0.826898 376.121H290.69C290.909 376.121 291.12 376.208 291.275 376.363C291.43 376.518 291.517 376.728 291.517 376.948C291.517 377.167 291.43 377.377 291.275 377.532C291.12 377.687 290.909 377.774 290.69 377.774Z" fill="#CACACA"/>
<path d="M131.951 212.322C132.65 211.62 133.186 210.772 133.522 209.84C133.858 208.908 133.986 207.913 133.896 206.926C133.806 205.94 133.501 204.985 133.002 204.128C132.503 203.272 131.823 202.536 131.008 201.971L141.8 148.367L129.882 152.193L121.244 204.042C120.386 205.473 120.083 207.169 120.392 208.808C120.7 210.448 121.6 211.917 122.92 212.938C124.239 213.958 125.888 214.459 127.552 214.346C129.217 214.232 130.782 213.512 131.951 212.322Z" fill="#9E616A"/>
<path d="M147.886 98.9094L140.492 93.3276C140.492 93.3276 133.968 92.8657 132.813 104.629C131.658 116.393 129.286 139.319 129.286 139.319L117.97 191.726L133.634 195.164L145.753 138.607L153.024 121.812L147.886 98.9094Z" fill="#3F3D56"/>
<path d="M243.926 114.084C243.003 113.723 242.012 113.569 241.023 113.633C240.035 113.697 239.072 113.977 238.203 114.453C237.334 114.929 236.58 115.59 235.994 116.39C235.408 117.189 235.004 118.107 234.812 119.079L181.354 130.575L189.619 139.976L240.607 127.205C242.262 127.421 243.938 127.022 245.318 126.085C246.698 125.147 247.686 123.736 248.095 122.119C248.504 120.501 248.306 118.79 247.537 117.309C246.769 115.828 245.484 114.681 243.926 114.084Z" fill="#9E616A"/>
<path d="M172.952 143.112C171.244 141.461 169.96 139.423 169.208 137.17L159.447 107.82C158.734 105.676 158.622 103.377 159.125 101.174C159.627 98.9714 160.724 96.9484 162.296 95.3254C163.868 93.7024 165.854 92.5415 168.04 91.9691C170.226 91.3966 172.527 91.4345 174.693 92.0785C177.138 92.809 179.298 94.2776 180.876 96.2832C182.454 98.2889 183.374 100.733 183.509 103.282L184.705 126.379L224.151 120.602L234.404 130.027L233.851 130.216C231.673 130.958 181.815 147.859 173.561 143.539C173.339 143.426 173.134 143.282 172.952 143.112Z" fill="#3F3D56"/>
<path d="M245.487 95.3905C245.418 95.3905 245.35 95.3891 245.28 95.3865C244.469 95.3571 243.678 95.1323 242.973 94.7312C242.267 94.3302 241.67 93.7647 241.23 93.0829C237.937 88.1608 233.895 83.783 229.251 80.1076C226.44 77.8607 223.503 75.7715 220.662 73.7508C213.333 68.5398 206.432 63.632 202.6 56.8506C194.247 42.0635 204.084 21.4671 218.137 12.2304C233.9 1.87082 254.633 0.245838 274.69 0.0328831C276.774 0.0108404 278.86 -0.000114839 280.947 9.07594e-07C317.085 0.0138575 353.147 3.31128 388.688 9.8516C400.507 12.032 412.877 14.7031 422.819 21.1854C432.701 27.6293 438.707 37.7769 438.121 47.0384C437.266 60.5588 422.933 70.6613 409.882 73.3025C397.443 75.818 384.52 74.1181 370.839 72.3177C367.818 71.9207 364.696 71.5097 361.607 71.1526C328.045 67.2733 264.996 79.2303 262.329 79.7414L259.683 80.248L249.415 93.4614C248.953 94.0637 248.358 94.5512 247.677 94.8858C246.996 95.2204 246.246 95.3932 245.487 95.3905Z" fill="#3FA14C"/>
<path d="M394.943 29.4337H253.087C252.27 29.4325 251.486 29.1067 250.908 28.528C250.33 27.9494 250.006 27.165 250.006 26.3472C250.006 25.5294 250.33 24.7451 250.908 24.1664C251.486 23.5877 252.27 23.262 253.087 23.2607H394.943C395.761 23.262 396.545 23.5877 397.123 24.1664C397.701 24.7451 398.025 25.5294 398.025 26.3472C398.025 27.165 397.701 27.9494 397.123 28.528C396.545 29.1067 395.761 29.4325 394.943 29.4337Z" fill="white"/>
<path d="M394.944 48.379H253.088C252.682 48.3798 252.28 48.3008 251.905 48.1462C251.53 47.9917 251.189 47.7648 250.902 47.4784C250.615 47.1921 250.387 46.8519 250.231 46.4774C250.075 46.1029 249.995 45.7013 249.995 45.2957C249.994 44.8901 250.074 44.4884 250.229 44.1136C250.384 43.7387 250.611 43.3981 250.898 43.1112C251.184 42.8242 251.525 42.5966 251.899 42.4413C252.274 42.286 252.676 42.206 253.081 42.2061H394.944C395.761 42.2073 396.545 42.533 397.123 43.1117C397.701 43.6904 398.025 44.4747 398.025 45.2925C398.025 46.1103 397.701 46.8947 397.123 47.4733C396.545 48.052 395.761 48.3778 394.944 48.379Z" fill="white"/>
<path d="M269.619 67.3238H253.087C252.269 67.3238 251.484 66.9986 250.905 66.4198C250.326 65.841 250.001 65.0559 250.001 64.2374C250.001 63.4188 250.326 62.6337 250.905 62.0549C251.484 61.4761 252.269 61.1509 253.087 61.1509H269.619C270.437 61.1509 271.222 61.4761 271.801 62.0549C272.38 62.6337 272.705 63.4188 272.705 64.2374C272.705 65.0559 272.38 65.841 271.801 66.4198C271.222 66.9986 270.437 67.3238 269.619 67.3238Z" fill="white"/>
</g>
<defs>
<clipPath id="clip0_35_74">
<rect width="524" height="377.775" fill="white"/>
</clipPath>
</defs>
</svg>
