<svg width="86" height="77" viewBox="0 0 86 77" fill="none" xmlns="http://www.w3.org/2000/svg">
<path d="M83.566 38.4566C83.566 58.1029 65.6667 74.4792 43 74.4792C20.3333 74.4792 2.43396 58.1029 2.43396 38.4566C2.43396 18.8103 20.3333 2.43396 43 2.43396C65.6667 2.43396 83.566 18.8103 83.566 38.4566Z" stroke="#D51E1E" stroke-width="4.86792"/>
<g clip-path="url(#clip0_176_10)">
<path d="M59.0984 23.1701C60.0718 21.9985 59.9168 20.2585 58.7452 19.285C57.5737 18.3116 55.8336 18.4667 54.8602 19.6382L43.1964 33.6365L31.5326 19.6382C30.5591 18.4667 28.819 18.3116 27.6475 19.285C26.4759 20.2585 26.3209 21.9985 27.2943 23.1701L39.6042 37.9437L27.2943 52.7172C26.3209 53.8888 26.4759 55.6289 27.6475 56.6023C28.819 57.5757 30.5591 57.4207 31.5326 56.2491L43.1964 42.2508L54.8602 56.2491C55.8336 57.4207 57.5737 57.5757 58.7452 56.6023C59.9168 55.6289 60.0718 53.8888 59.0984 52.7172L46.7885 37.9437L59.0984 23.1701Z" fill="#D51E1E"/>
</g>
<defs>
<clipPath id="clip0_176_10">
<rect width="33.079" height="44.1054" fill="white" transform="translate(26.6567 15.8911)"/>
</clipPath>
</defs>
</svg>
