<svg width="86" height="77" viewBox="0 0 86 77" fill="none" xmlns="http://www.w3.org/2000/svg">
<path d="M83.566 38.4566C83.566 58.1029 65.6667 74.4792 43 74.4792C20.3333 74.4792 2.43396 58.1029 2.43396 38.4566C2.43396 18.8103 20.3333 2.43396 43 2.43396C65.6667 2.43396 83.566 18.8103 83.566 38.4566Z" stroke="#3FA14C" stroke-width="4.86792"/>
<g clip-path="url(#clip0_176_9)">
<path d="M64.6149 23.193C65.8645 24.4426 65.8645 26.4719 64.6149 27.7215L39.0236 53.3129C37.774 54.5625 35.7447 54.5625 34.4951 53.3129L21.6994 40.5172C20.4498 39.2676 20.4498 37.2383 21.6994 35.9887C22.949 34.7392 24.9783 34.7392 26.2279 35.9887L36.7643 46.5152L60.0965 23.193C61.346 21.9435 63.3753 21.9435 64.6249 23.193H64.6149Z" fill="#3FA14C"/>
</g>
<defs>
<clipPath id="clip0_176_9">
<rect width="44.7849" height="51.1827" fill="white" transform="translate(20.7698 12.6567)"/>
</clipPath>
</defs>
</svg>
